<?xml version="1.0" encoding="utf-8"?>
<!-- Generator: Adobe Illustrator 25.2.1, SVG Export Plug-In . SVG Version: 6.00 Build 0)  -->
<svg version="1.1" id="Layer_1" xmlns="http://www.w3.org/2000/svg" xmlns:xlink="http://www.w3.org/1999/xlink" x="0px" y="0px"
	 viewBox="0 0 195.65 84.19" style="enable-background:new 0 0 195.65 84.19;" xml:space="preserve">
<style type="text/css">
	.st0{fill:#FFDA00;}
	.st1{fill:#72A8DB;}
</style>
<g>
	
		<ellipse transform="matrix(0.9728 -0.2318 0.2318 0.9728 -5.5751 36.7386)" class="st0" cx="153.56" cy="42.09" rx="11.57" ry="11.57"/>
	<g>
		<path class="st0" d="M167.18,43.49l9.45-1.4l-9.13-1.35l13.98-5.93l-15.45,1.69l7.5-5.95l-8.57,3.4l9.14-12.11l-12.54,9.18
			l3.53-8.9l-5.73,7.23l1.85-15.07l-6.26,14.2l-1.4-9.45l-1.35,9.13l-5.93-13.98l1.69,15.45l-5.95-7.5l3.4,8.57l-12.11-9.14
			l9.18,12.54l-8.9-3.53l7.23,5.73l-15.07-1.85l14.2,6.26l-9.45,1.4l9.13,1.35l-13.98,5.93l15.45-1.69l-7.5,5.95l8.57-3.4
			l-9.14,12.11l12.54-9.18l-3.53,8.9l5.73-7.23l-1.85,15.07l6.26-14.2l1.4,9.45l1.35-9.13l5.93,13.98l-1.69-15.45l5.95,7.5
			l-3.4-8.57l12.11,9.14l-9.18-12.54l8.9,3.53l-7.23-5.73l15.07,1.85L167.18,43.49z M153.56,55.16c-7.21,0-13.07-5.86-13.07-13.07
			s5.86-13.07,13.07-13.07c7.21,0,13.07,5.86,13.07,13.07S160.76,55.16,153.56,55.16z"/>
	</g>
</g>
<g>
	<g>
		<path class="st1" d="M31.15,58.91V25.88c0-0.69-0.56-1.25-1.25-1.25s-1.25,0.56-1.25,1.25v33.04c0,0.69,0.56,1.25,1.25,1.25
			S31.15,59.6,31.15,58.91z"/>
		<g>
			<g>
				<path class="st1" d="M35.22,30.53c-0.49-0.49-1.28-0.49-1.77,0l-3.55,3.55l-3.55-3.55c-0.49-0.49-1.28-0.49-1.77,0
					c-0.49,0.49-0.49,1.28,0,1.77l4.39,4.39c0.26,0.26,0.6,0.38,0.93,0.36c0.34,0.01,0.68-0.11,0.93-0.36l4.39-4.39
					C35.71,31.81,35.71,31.02,35.22,30.53z"/>
				<path class="st1" d="M33.86,26.57c-0.49-0.49-1.28-0.49-1.77,0l-2.18,2.18l-2.18-2.18c-0.49-0.49-1.28-0.49-1.77,0
					c-0.49,0.49-0.49,1.28,0,1.77l3.02,3.02c0.26,0.26,0.6,0.38,0.93,0.36c0.34,0.01,0.68-0.11,0.93-0.36l3.02-3.02
					C34.35,27.85,34.35,27.06,33.86,26.57z"/>
			</g>
			<g>
				<path class="st1" d="M35.22,54.26c-0.49,0.49-1.28,0.49-1.77,0l-3.55-3.55l-3.55,3.55c-0.49,0.49-1.28,0.49-1.77,0
					c-0.49-0.49-0.49-1.28,0-1.77l4.39-4.39c0.26-0.26,0.6-0.38,0.93-0.36c0.34-0.01,0.68,0.11,0.93,0.36l4.39,4.39
					C35.71,52.97,35.71,53.77,35.22,54.26z"/>
				<path class="st1" d="M33.86,58.22c-0.49,0.49-1.28,0.49-1.77,0l-2.18-2.18l-2.18,2.18c-0.49,0.49-1.28,0.49-1.77,0
					c-0.49-0.49-0.49-1.28,0-1.77l3.02-3.02c0.26-0.26,0.6-0.38,0.93-0.36c0.34-0.01,0.68,0.11,0.93,0.36l3.02,3.02
					C34.35,56.94,34.35,57.73,33.86,58.22z"/>
			</g>
		</g>
	</g>
	<g>
		<path class="st1" d="M44.83,49.57L16.22,33.05c-0.6-0.35-1.37-0.14-1.71,0.46c-0.35,0.6-0.14,1.37,0.46,1.71l28.61,16.52
			c0.6,0.35,1.37,0.14,1.71-0.46C45.64,50.68,45.43,49.91,44.83,49.57z"/>
		<g>
			<g>
				<path class="st1" d="M22.29,31.85c-0.67,0.18-1.07,0.87-0.89,1.53l1.3,4.85l-4.85,1.3c-0.67,0.18-1.07,0.87-0.89,1.54
					c0.18,0.67,0.87,1.07,1.54,0.89l5.99-1.61c0.35-0.09,0.63-0.33,0.78-0.63c0.18-0.29,0.25-0.64,0.15-0.99l-1.61-5.99
					C23.64,32.07,22.96,31.68,22.29,31.85z"/>
				<path class="st1" d="M18.17,31.05c-0.67,0.18-1.07,0.87-0.89,1.53l0.8,2.98l-2.98,0.8c-0.67,0.18-1.07,0.87-0.89,1.54
					c0.18,0.67,0.87,1.07,1.54,0.89l4.13-1.11c0.35-0.09,0.63-0.33,0.78-0.63c0.18-0.29,0.25-0.64,0.15-0.99l-1.11-4.13
					C19.53,31.27,18.84,30.87,18.17,31.05z"/>
			</g>
			<g>
				<path class="st1" d="M42.83,43.72c0.18,0.67-0.22,1.36-0.89,1.53l-4.85,1.3l1.3,4.85c0.18,0.67-0.22,1.36-0.89,1.54
					c-0.67,0.18-1.36-0.22-1.53-0.89l-1.61-5.99c-0.09-0.35-0.03-0.71,0.15-0.99c0.16-0.3,0.43-0.53,0.78-0.63l5.99-1.61
					C41.97,42.65,42.65,43.05,42.83,43.72z"/>
				<path class="st1" d="M45.58,46.88c0.18,0.67-0.22,1.36-0.89,1.53l-2.98,0.8l0.8,2.98c0.18,0.67-0.22,1.36-0.89,1.53
					c-0.67,0.18-1.36-0.22-1.53-0.89l-1.11-4.13c-0.09-0.35-0.03-0.71,0.15-0.99c0.16-0.3,0.43-0.53,0.78-0.63l4.13-1.11
					C44.72,45.81,45.41,46.21,45.58,46.88z"/>
			</g>
		</g>
	</g>
	<g>
		<path class="st1" d="M43.58,33.05L14.97,49.57c-0.6,0.35-0.8,1.11-0.46,1.71c0.35,0.6,1.11,0.8,1.71,0.46l28.61-16.52
			c0.6-0.35,0.8-1.11,0.46-1.71C44.94,32.91,44.18,32.7,43.58,33.05z"/>
		<g>
			<g>
				<path class="st1" d="M16.97,43.72c-0.18,0.67,0.22,1.36,0.89,1.53l4.85,1.3l-1.3,4.85c-0.18,0.67,0.22,1.36,0.89,1.53
					c0.67,0.18,1.36-0.22,1.53-0.89l1.61-5.99c0.09-0.35,0.03-0.71-0.15-0.99c-0.16-0.3-0.43-0.53-0.78-0.63l-5.99-1.61
					C17.83,42.65,17.15,43.05,16.97,43.72z"/>
				<path class="st1" d="M14.21,46.88c-0.18,0.67,0.22,1.36,0.89,1.53l2.98,0.8l-0.8,2.98c-0.18,0.67,0.22,1.36,0.89,1.53
					c0.67,0.18,1.36-0.22,1.53-0.89l1.11-4.13c0.09-0.35,0.03-0.71-0.15-0.99c-0.16-0.3-0.43-0.53-0.78-0.63l-4.13-1.11
					C15.08,45.81,14.39,46.21,14.21,46.88z"/>
			</g>
			<g>
				<path class="st1" d="M37.51,31.85c0.67,0.18,1.07,0.87,0.89,1.53l-1.3,4.85l4.85,1.3c0.67,0.18,1.07,0.87,0.89,1.53
					c-0.18,0.67-0.87,1.07-1.53,0.89l-5.99-1.61c-0.35-0.09-0.63-0.33-0.78-0.63c-0.18-0.29-0.25-0.64-0.15-0.99l1.61-5.99
					C36.16,32.07,36.84,31.68,37.51,31.85z"/>
				<path class="st1" d="M41.63,31.05c0.67,0.18,1.07,0.87,0.89,1.53l-0.8,2.98l2.98,0.8c0.67,0.18,1.07,0.87,0.89,1.54
					c-0.18,0.67-0.87,1.07-1.53,0.89l-4.13-1.11c-0.35-0.09-0.63-0.33-0.78-0.63c-0.18-0.29-0.25-0.64-0.15-0.99l1.11-4.13
					C40.27,31.27,40.96,30.87,41.63,31.05z"/>
			</g>
		</g>
	</g>
</g>
<path d="M139.32,37.39h4.66c0.45-0.87,1.03-1.67,1.69-2.39c0.66-0.73,1.45-1.36,2.29-1.87c0.84-0.51,1.74-0.91,2.7-1.19
	c0.92-0.26,1.9-0.4,2.9-0.4c0.02,0,0.02,0,0.04,0l0,0l0,0c0.71,0,1.4,0.07,2.08,0.21c0.68,0.14,1.36,0.33,2.01,0.61l0,0l0,0
	c0.64,0.26,1.27,0.59,1.85,0.99c0.59,0.38,1.13,0.84,1.64,1.34c0.28,0.26,0.54,0.58,0.8,0.89c0.26,0.33,0.49,0.66,0.7,0.99
	c0.23,0.33,0.42,0.68,0.59,1.05c0.18,0.35,0.33,0.73,0.46,1.1c0.02,0.05,0.03,0.12,0.05,0.17c0,0.02,0,0.04,0,0.04
	c0,0.05,0,0.1-0.02,0.16l0,0l0,0c0,0.05-0.02,0.12-0.03,0.17c-0.02,0.05-0.05,0.1-0.09,0.16l-0.02,0.02l0,0
	c-0.02,0.04-0.07,0.07-0.1,0.1c-0.05,0.05-0.1,0.09-0.16,0.12c-0.04,0.02-0.07,0.03-0.12,0.03c-0.02,0.02-0.02,0.02-0.03,0.02l0,0
	c-0.05,0.02-0.12,0.02-0.19,0.02l0,0h-6.54c-0.17,0-0.35,0.02-0.51,0.05c-0.17,0.03-0.33,0.09-0.49,0.16
	c-0.16,0.05-0.3,0.14-0.44,0.23c-0.14,0.09-0.28,0.19-0.4,0.33c-0.12,0.12-0.23,0.24-0.31,0.38c-0.11,0.14-0.17,0.3-0.24,0.44
	c-0.05,0.16-0.1,0.31-0.14,0.49c-0.03,0.16-0.05,0.33-0.05,0.51c0,0.02,0,0.03,0,0.05c0,0.31,0.07,0.63,0.19,0.91
	c0.14,0.31,0.33,0.61,0.58,0.85c0.24,0.23,0.54,0.44,0.85,0.58c0.28,0.12,0.59,0.19,0.91,0.19c0.02,0,0.04,0,0.05,0
	c0.02,0,0.04,0,0.05,0h6.49l0,0l0,0l0,0c0.07,0,0.12,0,0.17,0.02c0.07,0.02,0.12,0.04,0.17,0.07c0.04,0.02,0.07,0.03,0.09,0.05
	c0.04,0.02,0.05,0.03,0.07,0.05c0.02,0.02,0.04,0.03,0.05,0.05c0.05,0.05,0.11,0.12,0.14,0.19c0,0.02,0.02,0.03,0.02,0.05
	c0,0.02,0.02,0.03,0.02,0.05c0.02,0.04,0.02,0.07,0.02,0.12c0.02,0,0.02,0.02,0.02,0.04c0,0.05,0,0.1,0,0.14
	c-0.02,0.05-0.02,0.12-0.05,0.17l0,0l0,0c-0.37,1.06-0.91,2.04-1.55,2.91c-0.68,0.87-1.48,1.66-2.39,2.3
	c-0.89,0.63-1.9,1.13-2.95,1.47c-1.05,0.33-2.13,0.5-3.26,0.5l0,0l0,0l0,0c-0.71,0-1.43-0.07-2.11-0.19c-0.68-0.14-1.36-0.35-2-0.61
	c-0.65-0.28-1.27-0.61-1.85-0.99c-0.59-0.4-1.13-0.85-1.64-1.34c-0.19-0.19-0.38-0.4-0.58-0.63c-0.17-0.21-0.35-0.42-0.52-0.65
	c-0.16-0.24-0.31-0.47-0.45-0.7c-0.16-0.25-0.3-0.49-0.42-0.73l-5.62-0.02l-0.63-1.29l6.26,0.02h0.33c0.24,0,0.49,0.12,0.61,0.35
	l0.17,0.35c0.12,0.23,0.25,0.44,0.37,0.65c0.14,0.21,0.28,0.42,0.42,0.61c0.14,0.19,0.28,0.38,0.45,0.58
	c0.16,0.17,0.31,0.35,0.51,0.54c0.45,0.45,0.94,0.85,1.45,1.19c0.51,0.35,1.06,0.64,1.62,0.89c0.56,0.23,1.15,0.4,1.78,0.52
	c0.61,0.12,1.22,0.19,1.85,0.19v-0.02l0,0v0.02c0.99,0,1.95-0.16,2.86-0.45c0.94-0.3,1.81-0.73,2.62-1.29
	c0.79-0.56,1.5-1.26,2.09-2.04c0.42-0.56,0.8-1.19,1.1-1.85h-5.72l0,0h-0.02l0,0c-0.04,0-0.07,0-0.1,0
	c-0.49-0.02-0.96-0.12-1.4-0.31c-0.47-0.19-0.89-0.49-1.26-0.84c-0.35-0.37-0.65-0.79-0.84-1.26c-0.19-0.42-0.3-0.89-0.31-1.38
	c0-0.04,0-0.05,0-0.09c0-0.24,0.04-0.51,0.07-0.75c0.05-0.24,0.12-0.49,0.23-0.73c0.1-0.23,0.21-0.45,0.37-0.66
	c0.14-0.21,0.3-0.42,0.47-0.59c0.17-0.17,0.37-0.33,0.59-0.47c0.21-0.14,0.44-0.26,0.66-0.37c0.24-0.09,0.47-0.16,0.72-0.21
	c0.24-0.05,0.5-0.07,0.77-0.07h5.77c-0.05-0.1-0.09-0.19-0.14-0.28c-0.16-0.31-0.31-0.63-0.51-0.92c-0.19-0.31-0.4-0.59-0.61-0.87
	c-0.21-0.26-0.45-0.52-0.71-0.79c-0.45-0.45-0.94-0.85-1.45-1.19c-0.51-0.35-1.05-0.65-1.62-0.87l0,0
	c-0.56-0.24-1.15-0.42-1.76-0.54c-0.59-0.1-1.19-0.17-1.8-0.17c-0.02,0-0.04,0-0.07,0c-0.87,0-1.74,0.12-2.56,0.35
	c-0.84,0.24-1.64,0.59-2.37,1.05c-0.73,0.45-1.41,0.99-2,1.64c-0.59,0.63-1.1,1.34-1.5,2.13l-0.17,0.33l0,0
	c-0.1,0.21-0.31,0.35-0.56,0.35h-0.38l-4.48-0.02C139.49,38.2,139.42,37.79,139.32,37.39L139.32,37.39z"/>
<path d="M45.46,37.39h-5.35c-0.45-0.87-1.03-1.67-1.69-2.39c-0.66-0.73-1.45-1.36-2.29-1.87c-0.84-0.51-1.74-0.91-2.7-1.19
	c-0.92-0.26-1.9-0.4-2.9-0.4c-0.02,0-0.02,0-0.03,0l0,0l0,0c-0.72,0-1.4,0.07-2.08,0.21c-0.68,0.14-1.36,0.33-2.01,0.61l0,0l0,0
	c-0.65,0.26-1.27,0.59-1.85,0.99c-0.59,0.38-1.13,0.84-1.64,1.34c-0.28,0.26-0.54,0.58-0.8,0.89c-0.26,0.33-0.49,0.66-0.7,0.99
	c-0.23,0.33-0.42,0.68-0.59,1.05c-0.17,0.35-0.33,0.73-0.45,1.1c-0.02,0.05-0.03,0.12-0.05,0.17c0,0.02,0,0.04,0,0.04
	c0,0.05,0,0.1,0.02,0.16l0,0l0,0c0,0.05,0.02,0.12,0.03,0.17c0.02,0.05,0.05,0.1,0.09,0.16l0.02,0.02l0,0
	c0.02,0.04,0.07,0.07,0.1,0.1c0.05,0.05,0.1,0.09,0.16,0.12c0.04,0.02,0.07,0.03,0.12,0.03c0,0.02,0.02,0.02,0.04,0.02l0,0
	c0.05,0.02,0.12,0.02,0.19,0.02l0,0h6.54c0.17,0,0.35,0.02,0.51,0.05c0.17,0.03,0.33,0.09,0.49,0.16c0.16,0.05,0.3,0.14,0.44,0.23
	c0.14,0.09,0.28,0.19,0.4,0.33c0.12,0.12,0.23,0.24,0.31,0.38c0.1,0.14,0.17,0.3,0.24,0.44c0.05,0.16,0.1,0.31,0.14,0.49
	c0.03,0.16,0.05,0.33,0.05,0.51c0,0.02,0,0.03,0,0.05c0,0.31-0.07,0.63-0.19,0.91c-0.14,0.31-0.33,0.61-0.58,0.85
	c-0.24,0.23-0.54,0.44-0.85,0.58c-0.28,0.12-0.59,0.19-0.91,0.19c-0.02,0-0.03,0-0.05,0c-0.02,0-0.04,0-0.05,0h-6.49l0,0l0,0l0,0
	c-0.07,0-0.12,0-0.17,0.02c-0.07,0.02-0.12,0.04-0.17,0.07c-0.04,0.02-0.07,0.03-0.09,0.05c-0.03,0.02-0.05,0.03-0.07,0.05
	c-0.02,0.02-0.04,0.03-0.05,0.05c-0.07,0.05-0.1,0.12-0.14,0.19c0,0.02-0.02,0.03-0.02,0.05c0,0.02-0.02,0.03-0.02,0.05
	c-0.02,0.04-0.02,0.07-0.02,0.12c-0.02,0-0.02,0.02-0.02,0.04c0,0.05,0,0.1,0,0.14c0.02,0.05,0.02,0.12,0.05,0.17l0,0l0,0
	c0.37,1.06,0.91,2.04,1.55,2.91c0.68,0.87,1.48,1.66,2.39,2.3c0.89,0.63,1.9,1.13,2.95,1.47c1.05,0.33,2.13,0.5,3.26,0.5l0,0l0,0
	l0,0c0.72,0,1.43-0.07,2.11-0.19c0.68-0.14,1.36-0.35,2.01-0.61c0.65-0.28,1.27-0.61,1.85-0.99c0.59-0.4,1.13-0.85,1.64-1.34
	c0.19-0.19,0.38-0.4,0.58-0.63c0.17-0.21,0.35-0.42,0.52-0.65c0.16-0.24,0.31-0.47,0.45-0.7c0.16-0.25,0.3-0.49,0.42-0.73l5.35-0.02
	v-1.27h-5.37h-0.33c-0.24,0-0.49,0.12-0.61,0.35l-0.17,0.35c-0.12,0.23-0.24,0.44-0.37,0.65c-0.14,0.21-0.28,0.42-0.42,0.61
	c-0.14,0.19-0.28,0.38-0.45,0.58c-0.16,0.17-0.31,0.35-0.51,0.54c-0.45,0.45-0.94,0.85-1.45,1.19c-0.51,0.35-1.06,0.64-1.62,0.89
	c-0.56,0.23-1.15,0.4-1.78,0.52c-0.61,0.12-1.22,0.19-1.85,0.19v-0.02l0,0v0.02c-0.99,0-1.95-0.16-2.88-0.45
	c-0.92-0.3-1.8-0.73-2.6-1.29c-0.79-0.56-1.5-1.26-2.09-2.04c-0.42-0.56-0.8-1.19-1.1-1.85h5.72l0,0h0.02l0,0c0.04,0,0.07,0,0.1,0
	c0.49-0.02,0.96-0.12,1.4-0.31c0.47-0.19,0.89-0.49,1.26-0.84c0.35-0.37,0.65-0.79,0.84-1.26c0.19-0.42,0.3-0.89,0.31-1.38
	c0-0.04,0-0.05,0-0.09c0-0.24-0.03-0.51-0.07-0.75c-0.05-0.24-0.12-0.49-0.23-0.73c-0.1-0.23-0.21-0.45-0.37-0.66
	c-0.14-0.21-0.3-0.42-0.47-0.59c-0.17-0.17-0.37-0.33-0.59-0.47c-0.21-0.14-0.44-0.26-0.66-0.37c-0.24-0.09-0.47-0.16-0.72-0.21
	c-0.24-0.05-0.51-0.07-0.77-0.07h-5.77c0.05-0.1,0.09-0.19,0.14-0.28c0.16-0.31,0.31-0.63,0.51-0.92c0.19-0.31,0.4-0.59,0.61-0.87
	c0.21-0.26,0.45-0.52,0.72-0.79c0.45-0.45,0.94-0.85,1.45-1.19c0.51-0.35,1.05-0.65,1.62-0.87l0,0c0.56-0.24,1.15-0.42,1.76-0.54
	c0.59-0.1,1.19-0.17,1.8-0.17c0.02,0,0.03,0,0.07,0c0.87,0,1.74,0.12,2.56,0.35c0.84,0.24,1.64,0.59,2.37,1.05
	c0.73,0.45,1.41,0.99,2.01,1.64c0.59,0.63,1.1,1.34,1.5,2.13l0.17,0.33l0,0c0.1,0.21,0.31,0.35,0.56,0.35h0.38l5.37-0.02V37.39z"/>
<g>
	<path d="M64,45.05c0,2.23,0.29,3.84,0.29,4.32c0,0.22-0.19,0.38-0.46,0.41c-0.6,0.07-2.02,0.24-3.02,0.24
		c-1.03,0-3.14-0.17-3.55-0.24c-0.22-0.05-0.34-0.22-0.34-0.5c0-0.38,0.24-2.57,0.24-4.13v-1.87h-2.52v1.78
		c0,2.23,0.31,3.84,0.31,4.32c0,0.22-0.22,0.36-0.46,0.41c-0.62,0.1-2.21,0.24-3.19,0.24c-1.06,0-3.02-0.12-3.43-0.24
		c-0.22,0-0.34-0.22-0.34-0.5c0-0.38,0.26-2.57,0.26-4.13v-6.53c0-1.56-0.22-3.1-0.62-3.77c0-0.94,0.98-1.85,3.79-1.85
		c0.96,0,3.31,0.58,4.13,1.27c-0.29,0.91-0.46,2.23-0.46,4.03v2.14h2.52v-1.82c0-1.56-0.19-3.1-0.6-3.77c0-0.94,1.1-1.85,3.94-1.85
		c0.96,0,3.14,0.58,3.96,1.27C64.16,35.19,64,36.51,64,38.31V45.05z"/>
	<path d="M66.49,44.91v-7.42c0-1.1-0.29-1.51-0.5-1.7c-0.1-0.1-0.19-0.31-0.19-0.53c0-0.74,1.46-1.94,3.55-1.94
		c2.09,0,3.98,0.82,3.98,2.02v9.17c0,1.15,0.36,2.06,1.08,2.06c0.36,0,0.65-0.12,0.77-0.29v-9c0-0.84-0.19-1.39-0.48-1.63
		c-0.19-0.14-0.34-0.31-0.34-0.58c0-0.89,1.85-1.75,3.6-1.75c2.5,0,4.06,1.15,4.06,3.43v9.39c0,0.94,0.19,1.34,0.26,1.49
		c0.07,0.14,0.22,0.24,0.22,0.43c0,1.01-0.94,2.21-3,2.21c-1.51,0-2.64-0.38-3.31-1.58c-1.15,1.3-2.95,1.58-4.61,1.58
		C68.92,50.26,66.49,48.6,66.49,44.91z"/>
	<path d="M90.75,38.4c2.69,1.78,6.31,3.77,6.31,6.89c0,3.36-3.05,4.99-7.27,4.99c-3.26,0-6.17-1.13-6.17-3.19
		c0-1.61,1.37-2.5,2.9-2.5c0.79,0,1.73,0.41,2.04,0.84c-0.12,0.31-0.24,0.84-0.24,1.32c0,0.58,0.53,1.13,1.08,1.13
		c0.58,0,1.18-0.5,1.18-1.44c0-0.86-0.55-1.58-1.34-1.99c-2.28-1.18-5.5-3.31-5.5-6.63c0-3,3.38-4.78,6.86-4.78
		c3.19,0,5.47,1.37,5.47,3.14c0,1.46-1.15,2.4-2.5,2.4c-0.86,0-1.58-0.48-1.75-0.79c0.1-0.24,0.12-0.62,0.12-0.98
		c0-0.82-0.58-1.37-1.18-1.37c-0.65,0-1.03,0.48-1.03,1.08C89.75,37.3,90.18,38.02,90.75,38.4z"/>
	<path d="M109.5,33.91c0.86,0.14,2.06,0.94,2.06,1.92c0,0.82-0.29,1.7-0.62,2.23c-1.1,1.78-4.87,7.23-5.74,8.35
		c1.94-0.19,3.36-1.2,4.2-2.59c1.06,0,2.42,1.06,2.42,2.81c0,1.94-1.06,3.14-2.45,3.31c-1.18,0.14-3.24,0.31-5.45,0.31
		c-1.87,0-4.61-0.19-5.3-0.31c-0.74-0.02-1.13-0.72-1.13-1.39c0-0.65,0.31-0.98,0.67-1.46c1.34-1.82,5.02-7.1,6.17-9.22
		c-1.56,0-3.07,1.22-3.07,2.54c-0.26,0.26-1.18,0.62-1.85,0.62c-0.82,0-1.9-1.1-1.9-3.46c0-2.14,1.27-3.36,2.74-3.67
		c0.89-0.19,3.22-0.36,4.73-0.36C106.57,33.55,108.73,33.79,109.5,33.91z"/>
	<path d="M123.9,45.05c0,2.23,0.36,3.62,0.36,4.1c0,0.38-0.29,0.58-0.53,0.62c-0.62,0.1-2.52,0.24-3.53,0.24
		c-1.06,0-2.64-0.14-3.05-0.24c-0.24-0.05-0.46-0.24-0.46-0.58c0-0.38,0.36-2.5,0.36-4.06v-7.39c-0.07-0.17-0.17-0.24-0.29-0.24
		c-0.41,0-2.02,1.87-2.52,3.34c-0.14,0.41-0.34,0.55-0.65,0.55c-0.26,0-0.7-0.5-0.91-0.98c-0.22-0.48-0.58-1.8-0.58-3.48
		c0-2.16,1.49-3.1,2.26-3.24c0.65-0.12,3.07-0.38,6.1-0.38s5.71,0.17,6.38,0.38c0.94,0.31,2.06,0.82,2.06,3.1
		c0,1.66-0.46,2.98-0.62,3.41c-0.14,0.38-0.53,1.06-0.89,1.06c-0.38,0-0.6-0.22-0.72-0.5c-0.55-1.39-1.63-3.24-2.5-3.24
		c-0.12,0-0.22,0.07-0.29,0.24V45.05z"/>
	<path d="M136.81,45.05c0,2.23,0.31,3.84,0.31,4.32c0,0.22-0.24,0.36-0.46,0.41c-0.62,0.14-1.58,0.24-3.19,0.24
		c-1.78,0-3.02-0.17-3.43-0.24c-0.22-0.05-0.34-0.22-0.34-0.5c0-0.38,0.26-2.57,0.26-4.13v-6.53c0-1.56-0.22-2.83-0.62-3.55
		c0-0.94,0.96-1.8,3.79-1.8c0.96,0,3.31,0.55,4.13,1.25c-0.29,0.89-0.46,1.99-0.46,3.79V45.05z"/>
</g>
<g>
	<path d="M58.37,54.45c-0.33,0.01-0.62,0.05-0.89,0.14c-0.27,0.09-0.52,0.2-0.75,0.35l-2.27,1.46l3.3,3.81
		c0.15,0.18,0.32,0.31,0.51,0.39s0.44,0.12,0.75,0.12h0.37v0.57h-5.18v-0.57h0.95c0.15,0,0.26-0.02,0.32-0.06s0.09-0.09,0.09-0.16
		c0-0.09-0.04-0.18-0.13-0.29l-2.41-2.89l-1.88,1.24v1.7c0,0.31,0.39,0.46,1.18,0.46v0.57h-4.39v-0.57c0.79,0,1.18-0.15,1.18-0.46
		v-5.35c0-0.31-0.39-0.46-1.18-0.46v-0.59h4.39v0.59c-0.79,0-1.18,0.15-1.18,0.46v2.67l3.82-2.49c0.15-0.09,0.23-0.2,0.23-0.32
		c0-0.09-0.05-0.17-0.14-0.23s-0.24-0.09-0.43-0.09h-0.58v-0.59h4.33V54.45z"/>
	<path d="M74.25,54.45c-0.98,0-1.47,0.15-1.47,0.46v5.6h2.6c0.34,0,0.64-0.04,0.9-0.1c0.27-0.07,0.49-0.19,0.69-0.35
		c0.19-0.16,0.35-0.38,0.47-0.65s0.2-0.62,0.25-1.03l0.87,0.07l-0.32,2.85h-8.67v-0.57c0.79,0,1.18-0.15,1.18-0.46v-5.35
		c0-0.31-0.39-0.46-1.18-0.46v-0.59h4.68V54.45z"/>
	<path d="M93.35,54.45c-0.79,0-1.18,0.15-1.18,0.46v5.35c0,0.31,0.39,0.46,1.18,0.46v0.57h-4.4v-0.57c0.79,0,1.19-0.15,1.19-0.46
		v-5.35c0-0.31-0.4-0.46-1.19-0.46v-0.59h4.4V54.45z M89.58,52.68c0.27-0.08,0.52-0.18,0.77-0.3c0.25-0.12,0.49-0.24,0.72-0.35
		c0.23-0.11,0.46-0.21,0.68-0.29s0.45-0.12,0.68-0.12c0.27,0,0.45,0.05,0.56,0.14c0.11,0.1,0.17,0.21,0.17,0.33
		c0,0.17-0.11,0.29-0.34,0.38c-0.23,0.09-0.51,0.16-0.85,0.21c-0.34,0.06-0.7,0.11-1.08,0.15c-0.38,0.05-0.73,0.11-1.04,0.19
		L89.58,52.68z"/>
	<path d="M116.72,54.45c-0.79,0-1.19,0.15-1.19,0.46v5.35c0,0.31,0.4,0.46,1.19,0.46v0.57h-4.35v-0.57c0.79,0,1.18-0.15,1.18-0.46
		v-5.24l-2.9,6.27h-1.72l-2.9-6.27v5.24c0,0.31,0.39,0.46,1.18,0.46v0.57h-3.46v-0.57c0.79,0,1.18-0.15,1.18-0.46v-5.35
		c0-0.31-0.39-0.46-1.18-0.46v-0.59h3.95l2.62,5.84l2.62-5.84h3.78V54.45z"/>
	<path d="M136.56,60.41c0.09,0.2,0.45,0.3,1.09,0.3v0.58h-4.85v-0.58h1.17c0.26,0,0.38-0.06,0.38-0.19c0-0.02-0.01-0.06-0.04-0.11
		l-0.53-1.08h-4.07l-0.49,1c-0.02,0.04-0.03,0.08-0.03,0.12c0,0.17,0.19,0.26,0.58,0.26h0.82v0.58h-3.62V60.7
		c0.37,0,0.64-0.02,0.82-0.07s0.29-0.12,0.33-0.21l3.31-6.56h1.92L136.56,60.41z M130.05,58.59h3.39l-1.68-3.52L130.05,58.59z"/>
</g>
</svg>
